<?xml version="1.0" encoding="iso-8859-1"?>
<!-- Generator: Adobe Illustrator 19.0.0, SVG Export Plug-In . SVG Version: 6.00 Build 0)  -->
<svg version="1.1" id="Layer_1" xmlns="http://www.w3.org/2000/svg" xmlns:xlink="http://www.w3.org/1999/xlink" x="0px" y="0px"
	 viewBox="0 0 512 512" style="enable-background:new 0 0 512 512;" xml:space="preserve">
<g>
	<g>
		<path d="M414.75,221.005L256,379.755L97.25,221.005l-66.122,66.122L256,512l224.872-224.873L414.75,221.005z M57.54,287.127
			l39.71-39.711L256,406.166l158.75-158.75l39.711,39.711L256,485.588L57.54,287.127z"/>
	</g>
</g>
<g>
	<g>
		
			<rect x="302.657" y="329.142" transform="matrix(0.7071 -0.7071 0.7071 0.7071 -132.0003 358.2837)" width="127.658" height="18.676"/>
	</g>
</g>
<g>
	<g>
		<path d="M414.75,0L256,158.75L97.25,0L31.128,66.122L256,290.995L480.872,66.122L414.75,0z M57.54,66.122l39.71-39.711
			L256,185.161l158.75-158.75l39.711,39.711L256,264.583L57.54,66.122z"/>
	</g>
</g>
<g>
	<g>
		
			<rect x="302.658" y="108.15" transform="matrix(0.7071 -0.7071 0.7071 0.7071 24.2651 293.5567)" width="127.658" height="18.676"/>
	</g>
</g>
<g>
</g>
<g>
</g>
<g>
</g>
<g>
</g>
<g>
</g>
<g>
</g>
<g>
</g>
<g>
</g>
<g>
</g>
<g>
</g>
<g>
</g>
<g>
</g>
<g>
</g>
<g>
</g>
<g>
</g>
</svg>
